<?xml version="1.0" encoding="UTF-8" standalone="no"?>
<!-- Created with Inkscape (http://www.inkscape.org/) -->

<svg
   version="1.1"
   id="svg1"
   width="1000"
   height="500"
   viewBox="0 0 1000 500"
   sodipodi:docname="smf-discovery.svg"
   inkscape:version="1.4 (e7c3feb1, 2024-10-09)"
   xmlns:inkscape="http://www.inkscape.org/namespaces/inkscape"
   xmlns:sodipodi="http://sodipodi.sourceforge.net/DTD/sodipodi-0.dtd"
   xmlns="http://www.w3.org/2000/svg"
   xmlns:svg="http://www.w3.org/2000/svg">
  <defs
     id="defs1">
    <clipPath
       clipPathUnits="userSpaceOnUse"
       id="clipPath3">
      <path
         d="M 0,1.2207e-4 H 1133.25 V 792.00012 H 0 Z"
         clip-rule="evenodd"
         id="path3" />
    </clipPath>
    <clipPath
       clipPathUnits="userSpaceOnUse"
       id="clipPath6">
      <path
         d="M 1.6887e-5,0 H 1133.25 V 792 H 1.6887e-5 Z"
         transform="matrix(1,0,0,-1,-342.13001,543.75001)"
         clip-rule="evenodd"
         id="path6" />
    </clipPath>
    <clipPath
       clipPathUnits="userSpaceOnUse"
       id="clipPath10">
      <path
         d="M 1.6887e-5,0 H 1133.25 V 792 H 1.6887e-5 Z"
         transform="matrix(1,0,0,-1,-743.90002,543.10001)"
         clip-rule="evenodd"
         id="path10" />
    </clipPath>
    <clipPath
       clipPathUnits="userSpaceOnUse"
       id="clipPath12">
      <path
         d="M 1.6887e-5,0 H 1133.25 V 792 H 1.6887e-5 Z"
         transform="matrix(1,0,0,-1,-367.48001,487.70001)"
         clip-rule="evenodd"
         id="path12" />
    </clipPath>
    <clipPath
       clipPathUnits="userSpaceOnUse"
       id="clipPath13">
      <path
         d="M 1.6887e-5,0 H 1133.25 V 792 H 1.6887e-5 Z"
         transform="matrix(1,0,0,-1,-454.20001,487.70001)"
         clip-rule="evenodd"
         id="path13" />
    </clipPath>
    <clipPath
       clipPathUnits="userSpaceOnUse"
       id="clipPath14">
      <path
         d="M 1.6887e-5,0 H 1133.25 V 792 H 1.6887e-5 Z"
         transform="matrix(1,0,0,-1,-463.82001,487.70001)"
         clip-rule="evenodd"
         id="path14" />
    </clipPath>
    <clipPath
       clipPathUnits="userSpaceOnUse"
       id="clipPath15">
      <path
         d="M 1.6887e-5,0 H 1133.25 V 792 H 1.6887e-5 Z"
         transform="matrix(1,0,0,-1,-560.17001,487.70001)"
         clip-rule="evenodd"
         id="path15" />
    </clipPath>
    <clipPath
       clipPathUnits="userSpaceOnUse"
       id="clipPath16">
      <path
         d="M 1.6887e-5,0 H 1133.25 V 792 H 1.6887e-5 Z"
         transform="matrix(1,0,0,-1,-569.80001,487.70001)"
         clip-rule="evenodd"
         id="path16" />
    </clipPath>
    <clipPath
       clipPathUnits="userSpaceOnUse"
       id="clipPath17">
      <path
         d="M 1.6887e-5,0 H 1133.25 V 792 H 1.6887e-5 Z"
         transform="matrix(1,0,0,-1,-723.97002,487.70001)"
         clip-rule="evenodd"
         id="path17" />
    </clipPath>
    <clipPath
       clipPathUnits="userSpaceOnUse"
       id="clipPath18">
      <path
         d="M 1.6887e-5,0 H 1133.25 V 792 H 1.6887e-5 Z"
         transform="matrix(1,0,0,-1,-733.60002,487.70001)"
         clip-rule="evenodd"
         id="path18" />
    </clipPath>
    <clipPath
       clipPathUnits="userSpaceOnUse"
       id="clipPath19">
      <path
         d="M 1.6887e-5,0 H 1133.25 V 792 H 1.6887e-5 Z"
         transform="matrix(1,0,0,-1,-752.88002,487.70001)"
         clip-rule="evenodd"
         id="path19" />
    </clipPath>
    <clipPath
       clipPathUnits="userSpaceOnUse"
       id="clipPath20">
      <path
         d="M 1.6887e-5,0 H 1133.25 V 792 H 1.6887e-5 Z"
         transform="matrix(1,0,0,-1,-367.48001,468.17001)"
         clip-rule="evenodd"
         id="path20" />
    </clipPath>
    <clipPath
       clipPathUnits="userSpaceOnUse"
       id="clipPath21">
      <path
         d="M 1.6887e-5,0 H 1133.25 V 792 H 1.6887e-5 Z"
         transform="matrix(1,0,0,-1,-540.90001,468.17001)"
         clip-rule="evenodd"
         id="path21" />
    </clipPath>
    <clipPath
       clipPathUnits="userSpaceOnUse"
       id="clipPath22">
      <path
         d="M 1.6887e-5,0 H 1133.25 V 792 H 1.6887e-5 Z"
         transform="matrix(1,0,0,-1,-550.55002,468.17001)"
         clip-rule="evenodd"
         id="path22" />
    </clipPath>
    <clipPath
       clipPathUnits="userSpaceOnUse"
       id="clipPath23">
      <path
         d="M 1.6887e-5,0 H 1133.25 V 792 H 1.6887e-5 Z"
         transform="matrix(1,0,0,-1,-569.80001,468.17001)"
         clip-rule="evenodd"
         id="path23" />
    </clipPath>
    <clipPath
       clipPathUnits="userSpaceOnUse"
       id="clipPath24">
      <path
         d="M 1.6887e-5,0 H 1133.25 V 792 H 1.6887e-5 Z"
         transform="matrix(1,0,0,-1,-579.45001,468.17001)"
         clip-rule="evenodd"
         id="path24" />
    </clipPath>
    <clipPath
       clipPathUnits="userSpaceOnUse"
       id="clipPath26">
      <path
         d="M 1.6887e-5,0 H 1133.25 V 792 H 1.6887e-5 Z"
         transform="matrix(1,0,0,-1,-643.17002,423.65001)"
         clip-rule="evenodd"
         id="path26" />
    </clipPath>
    <clipPath
       clipPathUnits="userSpaceOnUse"
       id="clipPath27">
      <path
         d="M 1.6887e-5,0 H 1133.25 V 792 H 1.6887e-5 Z"
         transform="matrix(1,0,0,-1,-657.55001,394.40001)"
         clip-rule="evenodd"
         id="path27" />
    </clipPath>
    <clipPath
       clipPathUnits="userSpaceOnUse"
       id="clipPath29">
      <path
         d="M 1.6887e-5,0 H 1133.25 V 792 H 1.6887e-5 Z"
         transform="matrix(1,0,0,-1,-402.55001,350.98001)"
         clip-rule="evenodd"
         id="path29" />
    </clipPath>
  </defs>
  <sodipodi:namedview
     id="namedview1"
     pagecolor="#ffffff"
     bordercolor="#000000"
     borderopacity="0.25"
     inkscape:showpageshadow="2"
     inkscape:pageopacity="0.0"
     inkscape:pagecheckerboard="0"
     inkscape:deskcolor="#d1d1d1"
     inkscape:zoom="0.68166777"
     inkscape:cx="575.06019"
     inkscape:cy="410.02379"
     inkscape:window-width="1920"
     inkscape:window-height="938"
     inkscape:window-x="0"
     inkscape:window-y="25"
     inkscape:window-maximized="1"
     inkscape:current-layer="g1">
    <inkscape:page
       x="0"
       y="0"
       inkscape:label="1"
       id="page1"
       width="1000"
       height="500"
       margin="0"
       bleed="0" />
  </sodipodi:namedview>
  <g
     id="g1"
     inkscape:groupmode="layer"
     inkscape:label="1">
    <g
       id="g3"
       transform="translate(-265.52524,-233.25146)">
      <path
         id="path4"
         d="m 332.63,528.46 h 65.25 v 45.735 h -65.25 z"
         style="fill:#fff2cc;fill-opacity:1;fill-rule:evenodd;stroke:#c00000;stroke-width:1.0003;stroke-linecap:butt;stroke-linejoin:miter;stroke-miterlimit:10;stroke-dasharray:none;stroke-opacity:0.90196"
         transform="matrix(1.3333333,0,0,-1.3333333,0,1056)" />
    </g>
    <g
       id="g4"
       transform="translate(-265.52524,-233.25146)">
      <path
         id="path5"
         d="m 13.37,-0.71484375 c 0.06152,0.17285156 0.09375,0.31347656 0.09375,0.421875 0.0059,0.10253906 -0.02051,0.18164063 -0.08203,0.234375 -0.06445,0.05566406 -0.169922,0.08789063 -0.316406,0.10546875 -0.140625,0.01464844 -0.333985,0.0234375 -0.574219,0.0234375 -0.243164,0 -0.439453,-0.0087891 -0.585938,-0.0234375 C 11.764531,0.03808594 11.653203,0.0234375 11.577031,0 c -0.07031,-0.02929688 -0.125976,-0.0703125 -0.164062,-0.1171875 -0.03223,-0.046875 -0.06445,-0.10546875 -0.09375,-0.17578125 L 10.018438,-3.984375 H 3.71375 l -1.2421875,3.64453125 c -0.023437,0.0703125 -0.055664,0.13476562 -0.09375,0.1875 -0.041016,0.046875 -0.099609,0.09082031 -0.1757812,0.12890625 C 2.1317188,0.00585938 2.02625,0.02929688 1.885625,0.046875 1.7508594,0.06152344 1.5750781,0.0703125 1.3582813,0.0703125 c -0.2285157,0 -0.41601567,-0.01171875 -0.56250005,-0.03515625 -0.140625,-0.01757812 -0.24316406,-0.04980469 -0.3046875,-0.10546875 -0.0556641,-0.05273437 -0.0820313,-0.13183594 -0.0820313,-0.234375 0.005859,-0.10839844 0.0410156,-0.24902344 0.10546875,-0.421875 L 5.6004688,-14.8125 c 0.029297,-0.08496 0.070312,-0.155273 0.1171875,-0.210938 0.052734,-0.05273 0.1289062,-0.09668 0.2226562,-0.128906 0.099609,-0.0293 0.2255859,-0.0498 0.375,-0.05859 0.1552734,-0.01465 0.3515625,-0.02344 0.5859375,-0.02344 0.2490234,0 0.4570313,0.0088 0.6210938,0.02344 0.1640625,0.0088 0.2958984,0.0293 0.3984375,0.05859 0.099609,0.03223 0.1787109,0.0791 0.234375,0.140625 0.052734,0.05566 0.09668,0.125977 0.1289062,0.210938 z M 6.8426563,-13.148438 H 6.8309375 L 4.2176563,-5.5898437 H 9.4910938 Z M 32.758672,-0.3046875 c 0,0.0644531 -0.01758,0.1171875 -0.04687,0.1640625 -0.03223,0.046875 -0.08789,0.08789063 -0.164063,0.1171875 C 32.468633,0 32.366094,0.01757813 32.243047,0.03515625 c -0.117188,0.0234375 -0.275391,0.03515625 -0.46875,0.03515625 -0.181641,0 -0.336914,-0.01171875 -0.46875,-0.03515625 C 31.17957,0.01757813 31.077031,0 31.000859,-0.0234375 30.930547,-0.05273437 30.877813,-0.09375 30.848516,-0.140625 30.816289,-0.1875 30.801641,-0.24023438 30.801641,-0.3046875 V -13.511719 h -0.02344 l -5.402344,13.26562525 c -0.02344,0.0556641 -0.05859,0.10253906 -0.105468,0.140625 C 25.229369,-0.06445312 25.16785,-0.02929688 25.082889,0 c -0.0791,0.0234375 -0.175782,0.03808594 -0.292969,0.046875 -0.111328,0.01464844 -0.243164,0.0234375 -0.398438,0.0234375 -0.164062,0 -0.304687,-0.0087891 -0.421875,-0.0234375 -0.117187,-0.01757812 -0.216796,-0.03808594 -0.292968,-0.05859375 -0.0791,-0.02929687 -0.140625,-0.06445312 -0.1875,-0.10546875 -0.04102,-0.0380859 -0.06738,-0.0820313 -0.08203,-0.12890625 L 18.239141,-13.511719 h -0.01172 v 13.2070315 c 0,0.0644531 -0.01758,0.1171875 -0.04687,0.1640625 -0.03223,0.046875 -0.08789,0.08789063 -0.164063,0.1171875 C 17.937383,0 17.834844,0.01757813 17.711797,0.03515625 17.58582,0.05859375 17.424688,0.0703125 17.231328,0.0703125 c -0.1875,0 -0.345703,-0.01171875 -0.46875,-0.03515625 C 16.636602,0.01757813 16.534063,0 16.457891,-0.0234375 16.387578,-0.05273437 16.334844,-0.09375 16.305547,-0.140625 16.282109,-0.1875 16.270391,-0.24023438 16.270391,-0.3046875 V -14.25 c 0,-0.328125 0.08496,-0.5625 0.257812,-0.703125 0.169922,-0.140625 0.363281,-0.210938 0.574219,-0.210938 h 1.21875 c 0.249023,0 0.46875,0.02344 0.65625,0.07031 0.1875,0.04687 0.351562,0.123047 0.492187,0.222656 0.140625,0.102539 0.257813,0.231446 0.351563,0.386719 0.09375,0.158203 0.175781,0.339844 0.246094,0.550781 l 4.394531,10.980469 h 0.05859 l 4.570312,-10.945313 c 0.08496,-0.234375 0.178711,-0.433593 0.28125,-0.597656 0.09961,-0.164062 0.210938,-0.292969 0.328125,-0.386719 0.123047,-0.09961 0.260742,-0.169921 0.410156,-0.210937 0.146485,-0.04687 0.319336,-0.07031 0.515625,-0.07031 h 1.277344 c 0.117188,0 0.225586,0.02051 0.328125,0.05859 0.108399,0.03223 0.199219,0.08789 0.269531,0.164063 0.07617,0.07031 0.140625,0.164062 0.1875,0.28125 0.04687,0.111328 0.07031,0.246093 0.07031,0.410156 z M 44.521367,-14.296875 c 0,0.149414 -0.0088,0.27832 -0.02344,0.386719 -0.01758,0.111328 -0.04395,0.199218 -0.08203,0.269531 -0.04102,0.06445 -0.08789,0.111328 -0.140625,0.140625 -0.04687,0.03223 -0.09961,0.04687 -0.152343,0.04687 h -5.554688 v 5.15625 h 5.25 c 0.05274,0 0.105469,0.017578 0.152344,0.046875 0.05273,0.023437 0.09961,0.067383 0.140625,0.1289062 0.03809,0.064453 0.06445,0.1494141 0.08203,0.2578126 0.01465,0.102539 0.02344,0.234375 0.02344,0.3984375 0,0.149414 -0.0088,0.2783203 -0.02344,0.3867187 -0.01758,0.1025391 -0.04395,0.1875 -0.08203,0.2578125 -0.04102,0.064453 -0.08789,0.1142578 -0.140625,0.1523438 -0.04687,0.032227 -0.09961,0.046875 -0.152344,0.046875 h -5.25 v 6.3164062 c 0,0.0556641 -0.01758,0.11132813 -0.04687,0.1640625 -0.03223,0.046875 -0.08789,0.08789063 -0.164062,0.1171875 C 38.278203,0 38.175664,0.01757813 38.052617,0.03515625 37.926641,0.05859375 37.762578,0.0703125 37.56043,0.0703125 c -0.1875,0 -0.348633,-0.01171875 -0.480469,-0.03515625 C 36.945195,0.01757813 36.839727,0 36.763555,-0.0234375 36.684453,-0.05273437 36.628789,-0.09375 36.599492,-0.140625 c -0.03223,-0.0527344 -0.04687,-0.10839844 -0.04687,-0.1640625 V -14.34375 c 0,-0.304688 0.07617,-0.515625 0.234375,-0.632813 0.164063,-0.123046 0.333985,-0.1875 0.515625,-0.1875 h 6.820313 c 0.05273,0 0.105468,0.01758 0.152343,0.04687 0.05273,0.03223 0.09961,0.08203 0.140625,0.152344 0.03809,0.07031 0.06445,0.164063 0.08203,0.28125 0.01465,0.111328 0.02344,0.240235 0.02344,0.386719 z m 0,0"
         style="fill:#000000;fill-opacity:1;fill-rule:nonzero;stroke:none"
         aria-label="AMF"
         transform="matrix(1.3333333,0,0,1.3333333,456.17333,331)"
         clip-path="url(#clipPath6)" />
    </g>
    <g
       id="g6"
       transform="translate(-265.52524,-233.25146)">
      <path
         id="path7"
         d="M 752.58,482.35 H 364.87 v -0.75 h 387.71 z m -1,-5.37 10.01,5 -10.01,5 z"
         style="fill:#c00000;fill-opacity:1;fill-rule:nonzero;stroke:none"
         transform="matrix(1.3333333,0,0,-1.3333333,0,1056)" />
    </g>
    <g
       id="g7"
       transform="translate(-265.52524,-233.25146)">
      <path
         id="path8"
         d="m 731.63,528.46 h 65.25 v 45.735 h -65.25 z"
         style="fill:#fff2cc;fill-opacity:1;fill-rule:evenodd;stroke:#c00000;stroke-width:1.0003;stroke-linecap:butt;stroke-linejoin:miter;stroke-miterlimit:10;stroke-dasharray:none;stroke-opacity:0.90196"
         transform="matrix(1.3333333,0,0,-1.3333333,0,1056)" />
    </g>
    <g
       id="g8"
       transform="translate(-265.52524,-233.25146)">
      <path
         id="path9"
         d="m 13.476953,-0.83164063 c 0,0.15820313 -0.0293,0.29003907 -0.08203,0.3984375 -0.04687,0.11132813 -0.114258,0.19921875 -0.199219,0.26953125 -0.0791,0.0703125 -0.169922,0.12304688 -0.269531,0.15234375 -0.102539,0.02929688 -0.205078,0.046875 -0.304688,0.046875 h -0.644531 c -0.205078,0 -0.383789,-0.02050781 -0.539062,-0.05859375 -0.149414,-0.046875 -0.292969,-0.12304687 -0.433594,-0.234375 -0.134766,-0.1171875 -0.269531,-0.27246093 -0.410156,-0.46875 -0.134766,-0.19335937 -0.28125,-0.44531252 -0.445313,-0.75000002 L 5.3675781,-10.101172 C 5.115625,-10.546484 4.8636719,-11.009375 4.6058594,-11.495703 4.3539063,-11.987891 4.1195313,-12.4625 3.9027344,-12.925391 h -0.023437 c 0.014648,0.5625 0.026367,1.136719 0.035156,1.722657 0.00586,0.585937 0.011719,1.168945 0.011719,1.7460934 v 9.15234372 c 0,0.0556641 -0.017578,0.11132813 -0.046875,0.1640625 -0.032227,0.046875 -0.087891,0.08789063 -0.1640625,0.1171875 C 3.6449219,3.90625e-4 3.5453125,0.01796875 3.4222656,0.03554687 3.3050781,0.05898437 3.1527344,0.07070312 2.9652344,0.07070312 c -0.1875,0 -0.3457031,-0.01171875 -0.46875,-0.03515625 C 2.3792969,0.01796875 2.2855469,3.90625e-4 2.2152344,-0.02304688 2.1449219,-0.05234375 2.0921875,-0.09335938 2.0628906,-0.14023438 2.0306641,-0.19296875 2.0160156,-0.24863281 2.0160156,-0.30429688 V -14.296484 c 0,-0.310547 0.084961,-0.533204 0.2578125,-0.667969 0.1699219,-0.131836 0.3574219,-0.199219 0.5625,-0.199219 h 0.9609375 c 0.225586,0 0.413086,0.02051 0.5625,0.05859 0.1552735,0.04101 0.2929688,0.105469 0.4101563,0.199219 0.1230469,0.08789 0.2402344,0.210937 0.3515625,0.375 0.1171875,0.158203 0.2402344,0.357421 0.375,0.597656 l 3.6796875,6.6562499 c 0.2255859,0.4072265 0.4453125,0.805664 0.65625,1.1953125 0.2109371,0.383789 0.4130861,0.7617187 0.6093751,1.1367187 0.193359,0.375 0.386719,0.7470703 0.574219,1.1132813 0.193359,0.3603515 0.386718,0.7236328 0.574218,1.0898437 h 0.01172 c -0.01758,-0.6152344 -0.0293,-1.2568359 -0.03516,-1.921875 0,-0.6708984 0,-1.3154297 0,-1.9335937 v -8.2265624 c 0,-0.05274 0.01465,-0.105469 0.04687,-0.152344 0.0293,-0.04687 0.08203,-0.08496 0.152344,-0.117187 0.07617,-0.03809 0.175781,-0.06445 0.292968,-0.08203 0.123047,-0.01465 0.28418,-0.02344 0.480469,-0.02344 0.169922,0 0.319336,0.0088 0.445313,0.02344 0.123047,0.01758 0.222656,0.04395 0.292968,0.08203 0.07031,0.03223 0.120118,0.07031 0.152344,0.117187 0.0293,0.04687 0.04687,0.09961 0.04687,0.152344 z m 14.396485,0.52734375 c 0,0.0644531 -0.01172,0.1171875 -0.03516,0.1640625 -0.02344,0.046875 -0.07617,0.08789063 -0.152343,0.1171875 -0.0791,0.02929688 -0.1875,0.05273438 -0.328125,0.0703125 -0.140625,0.01464844 -0.328125,0.0234375 -0.5625,0.0234375 -0.205079,0 -0.372071,-0.0087891 -0.503907,-0.0234375 C 26.16543,0.0296875 26.062891,0.00625 25.986719,-0.02304688 c -0.0791,-0.03808593 -0.140625,-0.08789062 -0.1875,-0.15234375 -0.04102,-0.0615234 -0.07617,-0.140625 -0.105469,-0.234375 L 24.299219,-3.9839844 C 24.135156,-4.3882813 23.962305,-4.7603516 23.783594,-5.0972656 23.610742,-5.4400391 23.402734,-5.7330078 23.1625,-5.9761719 22.919336,-6.2251953 22.635156,-6.415625 22.307031,-6.5503906 21.978906,-6.6910156 21.583398,-6.7613281 21.123438,-6.7613281 h -1.347657 v 6.45703122 c 0,0.0644531 -0.02051,0.1171875 -0.05859,0.1640625 -0.03223,0.046875 -0.08789,0.08789063 -0.164063,0.1171875 -0.07031,0.023437505 -0.172852,0.04101563 -0.304687,0.05859375 -0.125977,0.0234375 -0.28711,0.03515625 -0.480469,0.03515625 -0.196289,0 -0.360352,-0.01171875 -0.492188,-0.03515625 -0.125976,-0.01757812 -0.228515,-0.035156245 -0.304687,-0.05859375 -0.0791,-0.02929687 -0.134766,-0.0703125 -0.164063,-0.1171875 -0.03223,-0.046875 -0.04687,-0.0996094 -0.04687,-0.1640625 V -14.343359 c 0,-0.304688 0.07617,-0.515625 0.234375,-0.632813 0.164063,-0.123047 0.333985,-0.1875 0.515625,-0.1875 h 3.222657 c 0.380859,0 0.697265,0.01172 0.949218,0.03516 0.257813,0.01758 0.486328,0.03516 0.691407,0.05859 0.585937,0.102539 1.101562,0.263672 1.546875,0.480469 0.451171,0.219726 0.832031,0.498047 1.136718,0.832031 0.304688,0.336914 0.530274,0.723633 0.679688,1.160156 0.155273,0.430664 0.234375,0.908203 0.234375,1.429688 0,0.509765 -0.07031,0.966797 -0.210938,1.3710936 -0.134765,0.3984375 -0.328125,0.7558594 -0.585937,1.0664063 -0.257813,0.3046875 -0.56836,0.571289 -0.925781,0.796875 -0.360352,0.2285156 -0.761719,0.4189453 -1.207032,0.5742187 0.249024,0.1113281 0.47461,0.2519531 0.679688,0.421875 0.202148,0.1640625 0.389648,0.3632813 0.5625,0.5976563 0.178711,0.234375 0.345703,0.5039062 0.503906,0.8085937 0.155273,0.3046875 0.310547,0.6503906 0.46875,1.03125 l 1.359375,3.3398438 c 0.108398,0.28124997 0.178711,0.48046872 0.210938,0.59765622 0.0293,0.11132813 0.04687,0.19628907 0.04687,0.2578125 z M 24.838281,-10.956641 c 0,-0.591797 -0.134765,-1.092773 -0.398437,-1.5 -0.266602,-0.413086 -0.711914,-0.708984 -1.335938,-0.890625 -0.196289,-0.05273 -0.418945,-0.09375 -0.667968,-0.117187 -0.243165,-0.02344 -0.5625,-0.03516 -0.960938,-0.03516 h -1.699219 v 5.1093746 h 1.96875 c 0.530274,0 0.987305,-0.061523 1.371094,-0.1875 0.389648,-0.1318359 0.714844,-0.3105469 0.972656,-0.5390625 0.257813,-0.234375 0.445313,-0.5068359 0.5625,-0.8203125 0.123047,-0.3105466 0.1875,-0.6503906 0.1875,-1.0195316 z m 13.634766,-3.339843 c 0,0.149414 -0.0088,0.27832 -0.02344,0.386718 -0.01758,0.111328 -0.04395,0.199219 -0.08203,0.269532 -0.04102,0.06445 -0.08789,0.111328 -0.140625,0.140625 -0.04687,0.03223 -0.09961,0.04687 -0.152344,0.04687 h -5.554687 v 5.1562496 h 5.25 c 0.05273,0 0.105469,0.017578 0.152344,0.046875 0.05273,0.023437 0.09961,0.067383 0.140625,0.1289063 0.03809,0.064453 0.06445,0.149414 0.08203,0.2578125 0.01465,0.102539 0.02344,0.234375 0.02344,0.3984375 0,0.149414 -0.0088,0.2783203 -0.02344,0.3867187 -0.01758,0.1025391 -0.04395,0.1875 -0.08203,0.2578125 -0.04102,0.064453 -0.08789,0.1142578 -0.140625,0.1523438 -0.04687,0.032227 -0.09961,0.046875 -0.152344,0.046875 h -5.25 v 6.31640622 c 0,0.0556641 -0.01758,0.11132813 -0.04687,0.1640625 -0.03223,0.046875 -0.08789,0.08789063 -0.164063,0.1171875 -0.0791,0.023437505 -0.18164,0.04101563 -0.304687,0.05859375 -0.125977,0.0234375 -0.290039,0.03515625 -0.492188,0.03515625 -0.1875,0 -0.348632,-0.01171875 -0.480468,-0.03515625 -0.134766,-0.01757812 -0.240235,-0.035156245 -0.316407,-0.05859375 -0.0791,-0.02929687 -0.134765,-0.0703125 -0.164062,-0.1171875 -0.03223,-0.0527344 -0.04687,-0.10839843 -0.04687,-0.1640625 V -14.343359 c 0,-0.304688 0.07617,-0.515625 0.234375,-0.632813 0.164062,-0.123047 0.333984,-0.1875 0.515625,-0.1875 h 6.820312 c 0.05273,0 0.105469,0.01758 0.152344,0.04687 0.05273,0.03223 0.09961,0.08203 0.140625,0.152344 0.03809,0.07031 0.06445,0.164062 0.08203,0.28125 0.01465,0.111328 0.02344,0.240234 0.02344,0.386719 z m 0,0"
         style="fill:#000000;fill-opacity:1;fill-rule:nonzero;stroke:none"
         aria-label="NRF"
         transform="matrix(1.3333333,0,0,1.3333333,991.86667,331.86667)"
         clip-path="url(#clipPath10)" />
    </g>
    <g
       id="g10"
       transform="translate(-265.52524,-233.25146)">
      <path
         id="path11"
         d="m 762,528.09 0.81,-246.61"
         style="fill:none;stroke:#c00000;stroke-width:1.2504;stroke-linecap:butt;stroke-linejoin:miter;stroke-miterlimit:10;stroke-dasharray:5.0017, 3.7512;stroke-dashoffset:0;stroke-opacity:1"
         transform="matrix(1.3333333,0,0,-1.3333333,0,1056)" />
    </g>
    <g
       id="g11"
       transform="translate(-265.52524,-233.25146)">
      <text
         id="text11"
         xml:space="preserve"
         transform="matrix(1.3333333,0,0,1.3333333,489.97333,405.73333)"
         clip-path="url(#clipPath12)"><tspan
           id="tspan11"
           style="font-variant:normal;font-weight:700;font-size:15.775px;font-family:'Courier New';writing-mode:lr-tb;fill:#c00000;fill-opacity:1;fill-rule:nonzero;stroke:none"
           x="0"
           dx="0 0.299725 0.299725 0.299725 -0.44170001 0.299725 0.299725 0.299725 0.299725"
           y="0">GET /nnrf</tspan></text>
      <text
         id="text12"
         xml:space="preserve"
         transform="matrix(1.3333333,0,0,1.3333333,605.6,405.73333)"
         clip-path="url(#clipPath13)"><tspan
           id="tspan12"
           style="font-variant:normal;font-weight:700;font-size:15.775px;font-family:'Courier New';writing-mode:lr-tb;fill:#c00000;fill-opacity:1;fill-rule:nonzero;stroke:none"
           x="0"
           y="0">-</tspan></text>
      <text
         id="text13"
         xml:space="preserve"
         transform="matrix(1.3333333,0,0,1.3333333,618.42667,405.73333)"
         clip-path="url(#clipPath14)"><tspan
           id="tspan13"
           style="font-variant:normal;font-weight:700;font-size:15.775px;font-family:'Courier New';writing-mode:lr-tb;fill:#c00000;fill-opacity:1;fill-rule:nonzero;stroke:none"
           x="0"
           dx="0 0.299725 0.299725 0.299725 -0.44170001 0.299725 0.299725 0.299725 0.299725 0.299725"
           y="0">disc/v1/nf</tspan></text>
      <text
         id="text14"
         xml:space="preserve"
         transform="matrix(1.3333333,0,0,1.3333333,746.89333,405.73333)"
         clip-path="url(#clipPath15)"><tspan
           id="tspan14"
           style="font-variant:normal;font-weight:700;font-size:15.775px;font-family:'Courier New';writing-mode:lr-tb;fill:#c00000;fill-opacity:1;fill-rule:nonzero;stroke:none"
           x="0"
           y="0">-</tspan></text>
      <text
         id="text15"
         xml:space="preserve"
         transform="matrix(1.3333333,0,0,1.3333333,759.73333,405.73333)"
         clip-path="url(#clipPath16)"><tspan
           id="tspan15"
           style="font-variant:normal;font-weight:700;font-size:15.775px;font-family:'Courier New';writing-mode:lr-tb;fill:#c00000;fill-opacity:1;fill-rule:nonzero;stroke:none"
           x="0"
           dx="0 0.299725 0.299725 0.299725 -0.44170001 0.299725 0.299725 0.299725 0.299725 0.299725 -0.44170001 0.299725 0.299725 0.299725 0.299725 0.299725"
           y="0">instances?target</tspan></text>
      <text
         id="text16"
         xml:space="preserve"
         transform="matrix(1.3333333,0,0,1.3333333,965.29333,405.73333)"
         clip-path="url(#clipPath17)"><tspan
           id="tspan16"
           style="font-variant:normal;font-weight:700;font-size:15.775px;font-family:'Courier New';writing-mode:lr-tb;fill:#c00000;fill-opacity:1;fill-rule:nonzero;stroke:none"
           x="0"
           y="0">-</tspan></text>
      <text
         id="text17"
         xml:space="preserve"
         transform="matrix(1.3333333,0,0,1.3333333,978.13333,405.73333)"
         clip-path="url(#clipPath18)"><tspan
           id="tspan17"
           style="font-variant:normal;font-weight:700;font-size:15.775px;font-family:'Courier New';writing-mode:lr-tb;fill:#c00000;fill-opacity:1;fill-rule:nonzero;stroke:none"
           x="0"
           y="0">nf</tspan></text>
      <text
         id="text18"
         xml:space="preserve"
         transform="matrix(1.3333333,0,0,1.3333333,1003.84,405.73333)"
         clip-path="url(#clipPath19)"><tspan
           id="tspan18"
           style="font-variant:normal;font-weight:700;font-size:15.775px;font-family:'Courier New';writing-mode:lr-tb;fill:#c00000;fill-opacity:1;fill-rule:nonzero;stroke:none"
           x="0"
           y="0">-</tspan></text>
      <text
         id="text19"
         xml:space="preserve"
         transform="matrix(1.3333333,0,0,1.3333333,489.97333,431.77333)"
         clip-path="url(#clipPath20)"><tspan
           id="tspan19"
           style="font-variant:normal;font-weight:700;font-size:15.75px;font-family:'Courier New';writing-mode:lr-tb;fill:#c00000;fill-opacity:1;fill-rule:nonzero;stroke:none"
           x="0"
           dx="0 0.315 0.315 0.315 -0.42524999 0.315 0.315 0.315 0.315 0.315 -0.42524999 0.315 0.315 0.315 0.315 0.315 -0.42524999 0.315"
           y="0">type=SMF&amp;requester</tspan></text>
      <text
         id="text20"
         xml:space="preserve"
         transform="matrix(1.3333333,0,0,1.3333333,721.2,431.77333)"
         clip-path="url(#clipPath21)"><tspan
           id="tspan20"
           style="font-variant:normal;font-weight:700;font-size:15.75px;font-family:'Courier New';writing-mode:lr-tb;fill:#c00000;fill-opacity:1;fill-rule:nonzero;stroke:none"
           x="0"
           y="0">-</tspan></text>
      <text
         id="text21"
         xml:space="preserve"
         transform="matrix(1.3333333,0,0,1.3333333,734.06667,431.77333)"
         clip-path="url(#clipPath22)"><tspan
           id="tspan21"
           style="font-variant:normal;font-weight:700;font-size:15.75px;font-family:'Courier New';writing-mode:lr-tb;fill:#c00000;fill-opacity:1;fill-rule:nonzero;stroke:none"
           x="0"
           y="0">nf</tspan></text>
      <text
         id="text22"
         xml:space="preserve"
         transform="matrix(1.3333333,0,0,1.3333333,759.73333,431.77333)"
         clip-path="url(#clipPath23)"><tspan
           id="tspan22"
           style="font-variant:normal;font-weight:700;font-size:15.75px;font-family:'Courier New';writing-mode:lr-tb;fill:#c00000;fill-opacity:1;fill-rule:nonzero;stroke:none"
           x="0"
           y="0">-</tspan></text>
      <text
         id="text23"
         xml:space="preserve"
         transform="matrix(1.3333333,0,0,1.3333333,772.6,431.77333)"
         clip-path="url(#clipPath24)"><tspan
           id="tspan23"
           style="font-variant:normal;font-weight:700;font-size:15.75px;font-family:'Courier New';writing-mode:lr-tb;fill:#c00000;fill-opacity:1;fill-rule:nonzero;stroke:none"
           x="0"
           dx="0 0.28349999 0.28349999 0.28349999 -0.45675001 0.28349999 0.28349999 0.28349999"
           y="0">type=AMF</tspan></text>
    </g>
    <g
       id="g24"
       transform="translate(-265.52524,-233.25146)">
      <path
         id="path25"
         d="m 640.88,383.01 h 192 v 65.228 h -192 z"
         style="fill:#fff2cc;fill-opacity:1;fill-rule:evenodd;stroke:#c00000;stroke-width:1.0003;stroke-linecap:butt;stroke-linejoin:miter;stroke-miterlimit:10;stroke-dasharray:none;stroke-opacity:0.90196"
         transform="matrix(1.3333333,0,0,-1.3333333,0,1056)" />
    </g>
    <g
       id="g25"
       transform="translate(-265.52524,-233.25146)">
      <text
         id="text25"
         xml:space="preserve"
         transform="matrix(1.3333333,0,0,1.3333333,857.56,491.13333)"
         clip-path="url(#clipPath26)"><tspan
           id="tspan25"
           style="font-variant:normal;font-weight:700;font-size:24px;font-family:'Courier New';writing-mode:lr-tb;fill:#c00000;fill-opacity:1;fill-rule:nonzero;stroke:none"
           x="0"
           dx="0 -0.14399999 -0.14399999 0.57599998 -0.14399999 -0.14399999 -0.14399999 -0.14399999 -0.14399999 0.57599998 -0.14399999 -0.14399999 -0.14399999 -0.14399999"
           y="0">Lookup target </tspan></text>
    </g>
    <g
       id="g26"
       transform="translate(-265.52524,-233.25146)">
      <text
         id="text26"
         xml:space="preserve"
         transform="matrix(1.3333333,0,0,1.3333333,876.73333,530.13333)"
         clip-path="url(#clipPath27)"><tspan
           id="tspan26"
           style="font-variant:normal;font-weight:700;font-size:24.025px;font-family:'Courier New';writing-mode:lr-tb;fill:#c00000;fill-opacity:1;fill-rule:nonzero;stroke:none"
           x="0"
           dx="0 -0.14415 -0.14415 0.57660002 -0.14415 -0.14415 -0.14415 -0.14415 -0.14415 0.57660002 -0.14415"
           y="0">SMF Profile</tspan></text>
    </g>
    <g
       id="g27"
       transform="translate(-265.52524,-233.25146)">
      <path
         id="path28"
         d="M 761.59,343.65 H 373.88 v -0.75 h 387.71 z m -386.71,4.62 -10.01,-5 10.01,-5 z"
         style="fill:#c00000;fill-opacity:1;fill-rule:nonzero;stroke:none"
         transform="matrix(1.3333333,0,0,-1.3333333,0,1056)" />
    </g>
    <g
       id="g28"
       transform="translate(-265.52524,-233.25146)">
      <text
         id="text28"
         xml:space="preserve"
         transform="matrix(1.3333333,0,0,1.3333333,536.73333,588.02667)"
         clip-path="url(#clipPath29)"><tspan
           id="tspan28"
           style="font-variant:normal;font-weight:700;font-size:18.025px;font-family:'Courier New';writing-mode:lr-tb;fill:#c00000;fill-opacity:1;fill-rule:nonzero;stroke:none"
           x="0"
           dx="0 -0.30642501 0.41457501 -0.30642501 -0.30642501 0.41457501 -0.30642501 -0.30642501 0.41457501 -0.30642501 -0.30642501 0.41457501 -0.30642501 -0.30642501 0.41457501 -0.30642501 -0.30642501 0.41457501 -0.30642501 -0.30642501 0.41457501"
           y="0">Response: SMF Profile</tspan></text>
    </g>
    <g
       id="g29"
       transform="translate(-265.52524,-233.25146)">
      <path
         id="path30"
         d="m 363.75,528.09 0.81,-246.61"
         style="fill:none;stroke:#c00000;stroke-width:1.2504;stroke-linecap:butt;stroke-linejoin:miter;stroke-miterlimit:10;stroke-dasharray:5.0017, 3.7512;stroke-dashoffset:0;stroke-opacity:1"
         transform="matrix(1.3333333,0,0,-1.3333333,0,1056)" />
    </g>
  </g>
</svg>
