<?xml version="1.0" encoding="UTF-8" standalone="no"?>
<!-- Created with Inkscape (http://www.inkscape.org/) -->

<svg
   version="1.1"
   id="svg1"
   width="1000"
   height="500"
   viewBox="0 0 1000 500"
   sodipodi:docname="AMF-5G-AKA - Serving Network Only.svg"
   inkscape:version="1.4 (e7c3feb1, 2024-10-09)"
   xmlns:inkscape="http://www.inkscape.org/namespaces/inkscape"
   xmlns:sodipodi="http://sodipodi.sourceforge.net/DTD/sodipodi-0.dtd"
   xmlns="http://www.w3.org/2000/svg"
   xmlns:svg="http://www.w3.org/2000/svg">
  <defs
     id="defs1">
    <clipPath
       clipPathUnits="userSpaceOnUse"
       id="clipPath3">
      <path
         d="M 0,1.2207e-4 H 1133.25 V 792.00012 H 0 Z"
         clip-rule="evenodd"
         id="path3" />
    </clipPath>
    <clipPath
       clipPathUnits="userSpaceOnUse"
       id="clipPath6">
      <path
         d="M 1.6887e-5,0 H 1133.25 V 792 H 1.6887e-5 Z"
         transform="matrix(1,0,0,-1,-342.13001,543.75001)"
         clip-rule="evenodd"
         id="path6" />
    </clipPath>
    <clipPath
       clipPathUnits="userSpaceOnUse"
       id="clipPath10">
      <path
         d="M 1.6887e-5,0 H 1133.25 V 792 H 1.6887e-5 Z"
         transform="matrix(1,0,0,-1,-740.43002,543.10001)"
         clip-rule="evenodd"
         id="path10" />
    </clipPath>
    <clipPath
       clipPathUnits="userSpaceOnUse"
       id="clipPath11">
      <path
         d="M 1.6887e-5,0 H 1133.25 V 792 H 1.6887e-5 Z"
         transform="matrix(1,0,0,-1,-377.88001,486.27001)"
         clip-rule="evenodd"
         id="path11" />
    </clipPath>
    <clipPath
       clipPathUnits="userSpaceOnUse"
       id="clipPath12">
      <path
         d="M 1.6887e-5,0 H 1133.25 V 792 H 1.6887e-5 Z"
         transform="matrix(1,0,0,-1,-435.70001,486.27001)"
         clip-rule="evenodd"
         id="path12" />
    </clipPath>
    <clipPath
       clipPathUnits="userSpaceOnUse"
       id="clipPath13">
      <path
         d="M 1.6887e-5,0 H 1133.25 V 792 H 1.6887e-5 Z"
         transform="matrix(1,0,0,-1,-483.88001,486.27001)"
         clip-rule="evenodd"
         id="path13" />
    </clipPath>
    <clipPath
       clipPathUnits="userSpaceOnUse"
       id="clipPath14">
      <path
         d="M 1.6887e-5,0 H 1133.25 V 792 H 1.6887e-5 Z"
         transform="matrix(1,0,0,-1,-493.50001,486.27001)"
         clip-rule="evenodd"
         id="path14" />
    </clipPath>
    <clipPath
       clipPathUnits="userSpaceOnUse"
       id="clipPath15">
      <path
         d="M 1.6887e-5,0 H 1133.25 V 792 H 1.6887e-5 Z"
         transform="matrix(1,0,0,-1,-570.58001,486.27001)"
         clip-rule="evenodd"
         id="path15" />
    </clipPath>
    <clipPath
       clipPathUnits="userSpaceOnUse"
       id="clipPath16">
      <path
         d="M 1.6887e-5,0 H 1133.25 V 792 H 1.6887e-5 Z"
         transform="matrix(1,0,0,-1,-589.85002,486.27001)"
         clip-rule="evenodd"
         id="path16" />
    </clipPath>
    <clipPath
       clipPathUnits="userSpaceOnUse"
       id="clipPath17">
      <path
         d="M 1.6887e-5,0 H 1133.25 V 792 H 1.6887e-5 Z"
         transform="matrix(1,0,0,-1,-599.47001,486.27001)"
         clip-rule="evenodd"
         id="path17" />
    </clipPath>
    <clipPath
       clipPathUnits="userSpaceOnUse"
       id="clipPath19">
      <path
         d="M 1.6887e-5,0 H 1133.25 V 792 H 1.6887e-5 Z"
         transform="matrix(1,0,0,-1,-438.65001,364.97001)"
         clip-rule="evenodd"
         id="path19" />
    </clipPath>
    <clipPath
       clipPathUnits="userSpaceOnUse"
       id="clipPath22">
      <path
         d="M 1.6887e-5,0 H 1133.25 V 792 H 1.6887e-5 Z"
         transform="matrix(1,0,0,-1,-378.88001,325.88001)"
         clip-rule="evenodd"
         id="path22" />
    </clipPath>
    <clipPath
       clipPathUnits="userSpaceOnUse"
       id="clipPath23">
      <path
         d="M 1.6887e-5,0 H 1133.25 V 792 H 1.6887e-5 Z"
         transform="matrix(1,0,0,-1,-427.05001,325.88001)"
         clip-rule="evenodd"
         id="path23" />
    </clipPath>
    <clipPath
       clipPathUnits="userSpaceOnUse"
       id="clipPath24">
      <path
         d="M 1.6887e-5,0 H 1133.25 V 792 H 1.6887e-5 Z"
         transform="matrix(1,0,0,-1,-475.22001,325.88001)"
         clip-rule="evenodd"
         id="path24" />
    </clipPath>
    <clipPath
       clipPathUnits="userSpaceOnUse"
       id="clipPath25">
      <path
         d="M 1.6887e-5,0 H 1133.25 V 792 H 1.6887e-5 Z"
         transform="matrix(1,0,0,-1,-484.85001,325.88001)"
         clip-rule="evenodd"
         id="path25" />
    </clipPath>
    <clipPath
       clipPathUnits="userSpaceOnUse"
       id="clipPath26">
      <path
         d="M 1.6887e-5,0 H 1133.25 V 792 H 1.6887e-5 Z"
         transform="matrix(1,0,0,-1,-561.92002,325.88001)"
         clip-rule="evenodd"
         id="path26" />
    </clipPath>
    <clipPath
       clipPathUnits="userSpaceOnUse"
       id="clipPath27">
      <path
         d="M 1.6887e-5,0 H 1133.25 V 792 H 1.6887e-5 Z"
         transform="matrix(1,0,0,-1,-581.20001,325.88001)"
         clip-rule="evenodd"
         id="path27" />
    </clipPath>
    <clipPath
       clipPathUnits="userSpaceOnUse"
       id="clipPath28">
      <path
         d="M 1.6887e-5,0 H 1133.25 V 792 H 1.6887e-5 Z"
         transform="matrix(1,0,0,-1,-590.85001,325.88001)"
         clip-rule="evenodd"
         id="path28" />
    </clipPath>
    <clipPath
       clipPathUnits="userSpaceOnUse"
       id="clipPath29">
      <path
         d="M 1.6887e-5,0 H 1133.25 V 792 H 1.6887e-5 Z"
         transform="matrix(1,0,0,-1,-378.88001,306.35001)"
         clip-rule="evenodd"
         id="path29" />
    </clipPath>
    <clipPath
       clipPathUnits="userSpaceOnUse"
       id="clipPath30">
      <path
         d="M 1.6887e-5,0 H 1133.25 V 792 H 1.6887e-5 Z"
         transform="matrix(1,0,0,-1,-436.67001,306.35001)"
         clip-rule="evenodd"
         id="path30" />
    </clipPath>
    <clipPath
       clipPathUnits="userSpaceOnUse"
       id="clipPath31">
      <path
         d="M 1.6887e-5,0 H 1133.25 V 792 H 1.6887e-5 Z"
         transform="matrix(1,0,0,-1,-446.33001,306.35001)"
         clip-rule="evenodd"
         id="path31" />
    </clipPath>
    <clipPath
       clipPathUnits="userSpaceOnUse"
       id="clipPath32">
      <path
         d="M 1.6887e-5,0 H 1133.25 V 792 H 1.6887e-5 Z"
         transform="matrix(1,0,0,-1,-475.22001,306.35001)"
         clip-rule="evenodd"
         id="path32" />
    </clipPath>
    <clipPath
       clipPathUnits="userSpaceOnUse"
       id="clipPath33">
      <path
         d="M 1.6887e-5,0 H 1133.25 V 792 H 1.6887e-5 Z"
         transform="matrix(1,0,0,-1,-484.85001,306.35001)"
         clip-rule="evenodd"
         id="path33" />
    </clipPath>
    <clipPath
       clipPathUnits="userSpaceOnUse"
       id="clipPath36">
      <path
         d="M 1.6887e-5,0 H 1133.25 V 792 H 1.6887e-5 Z"
         transform="matrix(1,0,0,-1,-702.97002,396.02001)"
         clip-rule="evenodd"
         id="path36" />
    </clipPath>
    <clipPath
       clipPathUnits="userSpaceOnUse"
       id="clipPath39">
      <path
         d="M 1.6887e-5,0 H 1133.25 V 792 H 1.6887e-5 Z"
         transform="matrix(1,0,0,-1,-703.72002,453.60001)"
         clip-rule="evenodd"
         id="path39" />
    </clipPath>
    <clipPath
       clipPathUnits="userSpaceOnUse"
       id="clipPath40">
      <path
         d="M 1.6887e-5,0 H 1133.25 V 792 H 1.6887e-5 Z"
         transform="matrix(1,0,0,-1,-703.72002,434.10001)"
         clip-rule="evenodd"
         id="path40" />
    </clipPath>
    <clipPath
       clipPathUnits="userSpaceOnUse"
       id="clipPath45">
      <path
         d="M 1.6887e-5,0 H 1133.25 V 792 H 1.6887e-5 Z"
         transform="matrix(1,0,0,-1,-703.72002,282.75001)"
         clip-rule="evenodd"
         id="path45" />
    </clipPath>
    <clipPath
       clipPathUnits="userSpaceOnUse"
       id="clipPath46">
      <path
         d="M 1.6887e-5,0 H 1133.25 V 792 H 1.6887e-5 Z"
         transform="matrix(1,0,0,-1,-703.72002,263.22001)"
         clip-rule="evenodd"
         id="path46" />
    </clipPath>
  </defs>
  <sodipodi:namedview
     id="namedview1"
     pagecolor="#ffffff"
     bordercolor="#000000"
     borderopacity="0.25"
     inkscape:showpageshadow="2"
     inkscape:pageopacity="0.0"
     inkscape:pagecheckerboard="0"
     inkscape:deskcolor="#d1d1d1"
     inkscape:zoom="0.68166777"
     inkscape:cx="754.7665"
     inkscape:cy="527.38301"
     inkscape:window-width="1920"
     inkscape:window-height="938"
     inkscape:window-x="0"
     inkscape:window-y="25"
     inkscape:window-maximized="1"
     inkscape:current-layer="g1">
    <inkscape:page
       x="0"
       y="0"
       inkscape:label="1"
       id="page1"
       width="1000"
       height="500"
       margin="0"
       bleed="0" />
  </sodipodi:namedview>
  <g
     id="g1"
     inkscape:groupmode="layer"
     inkscape:label="1">
    <g
       id="g3"
       transform="translate(-275.79417,-268.45922)">
      <path
         id="path4"
         d="m 332.63,528.46 h 65.25 v 45.735 h -65.25 z"
         style="fill:#fff2cc;fill-opacity:1;fill-rule:evenodd;stroke:#c00000;stroke-width:1.0003;stroke-linecap:butt;stroke-linejoin:miter;stroke-miterlimit:10;stroke-dasharray:none;stroke-opacity:0.90196"
         transform="matrix(1.3333333,0,0,-1.3333333,0,1056)" />
    </g>
    <g
       id="g4"
       transform="translate(-275.79417,-268.45922)">
      <path
         id="path5"
         d="m 13.37,-0.71484375 c 0.06152,0.17285156 0.09375,0.31347656 0.09375,0.421875 0.0059,0.10253906 -0.02051,0.18164063 -0.08203,0.234375 -0.06445,0.05566406 -0.169922,0.08789063 -0.316406,0.10546875 -0.140625,0.01464844 -0.333985,0.0234375 -0.574219,0.0234375 -0.243164,0 -0.439453,-0.0087891 -0.585938,-0.0234375 C 11.764531,0.03808594 11.653203,0.0234375 11.577031,0 c -0.07031,-0.02929688 -0.125976,-0.0703125 -0.164062,-0.1171875 -0.03223,-0.046875 -0.06445,-0.10546875 -0.09375,-0.17578125 L 10.018438,-3.984375 H 3.71375 l -1.2421875,3.64453125 c -0.023437,0.0703125 -0.055664,0.13476562 -0.09375,0.1875 -0.041016,0.046875 -0.099609,0.09082031 -0.1757812,0.12890625 C 2.1317188,0.00585938 2.02625,0.02929688 1.885625,0.046875 1.7508594,0.06152344 1.5750781,0.0703125 1.3582813,0.0703125 c -0.2285157,0 -0.41601567,-0.01171875 -0.56250005,-0.03515625 -0.140625,-0.01757812 -0.24316406,-0.04980469 -0.3046875,-0.10546875 -0.0556641,-0.05273437 -0.0820313,-0.13183594 -0.0820313,-0.234375 0.005859,-0.10839844 0.0410156,-0.24902344 0.10546875,-0.421875 L 5.6004688,-14.8125 c 0.029297,-0.08496 0.070312,-0.155273 0.1171875,-0.210938 0.052734,-0.05273 0.1289062,-0.09668 0.2226562,-0.128906 0.099609,-0.0293 0.2255859,-0.0498 0.375,-0.05859 0.1552734,-0.01465 0.3515625,-0.02344 0.5859375,-0.02344 0.2490234,0 0.4570313,0.0088 0.6210938,0.02344 0.1640625,0.0088 0.2958984,0.0293 0.3984375,0.05859 0.099609,0.03223 0.1787109,0.0791 0.234375,0.140625 0.052734,0.05566 0.09668,0.125977 0.1289062,0.210938 z M 6.8426563,-13.148438 H 6.8309375 L 4.2176563,-5.5898437 H 9.4910938 Z M 32.758672,-0.3046875 c 0,0.0644531 -0.01758,0.1171875 -0.04687,0.1640625 -0.03223,0.046875 -0.08789,0.08789063 -0.164063,0.1171875 C 32.468633,0 32.366094,0.01757813 32.243047,0.03515625 c -0.117188,0.0234375 -0.275391,0.03515625 -0.46875,0.03515625 -0.181641,0 -0.336914,-0.01171875 -0.46875,-0.03515625 C 31.17957,0.01757813 31.077031,0 31.000859,-0.0234375 30.930547,-0.05273437 30.877813,-0.09375 30.848516,-0.140625 30.816289,-0.1875 30.801641,-0.24023438 30.801641,-0.3046875 V -13.511719 h -0.02344 l -5.402344,13.26562525 c -0.02344,0.0556641 -0.05859,0.10253906 -0.105468,0.140625 C 25.229369,-0.06445312 25.16785,-0.02929688 25.082889,0 c -0.0791,0.0234375 -0.175782,0.03808594 -0.292969,0.046875 -0.111328,0.01464844 -0.243164,0.0234375 -0.398438,0.0234375 -0.164062,0 -0.304687,-0.0087891 -0.421875,-0.0234375 -0.117187,-0.01757812 -0.216796,-0.03808594 -0.292968,-0.05859375 -0.0791,-0.02929687 -0.140625,-0.06445312 -0.1875,-0.10546875 -0.04102,-0.0380859 -0.06738,-0.0820313 -0.08203,-0.12890625 L 18.239141,-13.511719 h -0.01172 v 13.2070315 c 0,0.0644531 -0.01758,0.1171875 -0.04687,0.1640625 -0.03223,0.046875 -0.08789,0.08789063 -0.164063,0.1171875 C 17.937383,0 17.834844,0.01757813 17.711797,0.03515625 17.58582,0.05859375 17.424688,0.0703125 17.231328,0.0703125 c -0.1875,0 -0.345703,-0.01171875 -0.46875,-0.03515625 C 16.636602,0.01757813 16.534063,0 16.457891,-0.0234375 16.387578,-0.05273437 16.334844,-0.09375 16.305547,-0.140625 16.282109,-0.1875 16.270391,-0.24023438 16.270391,-0.3046875 V -14.25 c 0,-0.328125 0.08496,-0.5625 0.257812,-0.703125 0.169922,-0.140625 0.363281,-0.210938 0.574219,-0.210938 h 1.21875 c 0.249023,0 0.46875,0.02344 0.65625,0.07031 0.1875,0.04687 0.351562,0.123047 0.492187,0.222656 0.140625,0.102539 0.257813,0.231446 0.351563,0.386719 0.09375,0.158203 0.175781,0.339844 0.246094,0.550781 l 4.394531,10.980469 h 0.05859 l 4.570312,-10.945313 c 0.08496,-0.234375 0.178711,-0.433593 0.28125,-0.597656 0.09961,-0.164062 0.210938,-0.292969 0.328125,-0.386719 0.123047,-0.09961 0.260742,-0.169921 0.410156,-0.210937 0.146485,-0.04687 0.319336,-0.07031 0.515625,-0.07031 h 1.277344 c 0.117188,0 0.225586,0.02051 0.328125,0.05859 0.108399,0.03223 0.199219,0.08789 0.269531,0.164063 0.07617,0.07031 0.140625,0.164062 0.1875,0.28125 0.04687,0.111328 0.07031,0.246093 0.07031,0.410156 z M 44.521367,-14.296875 c 0,0.149414 -0.0088,0.27832 -0.02344,0.386719 -0.01758,0.111328 -0.04395,0.199218 -0.08203,0.269531 -0.04102,0.06445 -0.08789,0.111328 -0.140625,0.140625 -0.04687,0.03223 -0.09961,0.04687 -0.152343,0.04687 h -5.554688 v 5.15625 h 5.25 c 0.05274,0 0.105469,0.017578 0.152344,0.046875 0.05273,0.023437 0.09961,0.067383 0.140625,0.1289062 0.03809,0.064453 0.06445,0.1494141 0.08203,0.2578126 0.01465,0.102539 0.02344,0.234375 0.02344,0.3984375 0,0.149414 -0.0088,0.2783203 -0.02344,0.3867187 -0.01758,0.1025391 -0.04395,0.1875 -0.08203,0.2578125 -0.04102,0.064453 -0.08789,0.1142578 -0.140625,0.1523438 -0.04687,0.032227 -0.09961,0.046875 -0.152344,0.046875 h -5.25 v 6.3164062 c 0,0.0556641 -0.01758,0.11132813 -0.04687,0.1640625 -0.03223,0.046875 -0.08789,0.08789063 -0.164062,0.1171875 C 38.278203,0 38.175664,0.01757813 38.052617,0.03515625 37.926641,0.05859375 37.762578,0.0703125 37.56043,0.0703125 c -0.1875,0 -0.348633,-0.01171875 -0.480469,-0.03515625 C 36.945195,0.01757813 36.839727,0 36.763555,-0.0234375 36.684453,-0.05273437 36.628789,-0.09375 36.599492,-0.140625 c -0.03223,-0.0527344 -0.04687,-0.10839844 -0.04687,-0.1640625 V -14.34375 c 0,-0.304688 0.07617,-0.515625 0.234375,-0.632813 0.164063,-0.123046 0.333985,-0.1875 0.515625,-0.1875 h 6.820313 c 0.05273,0 0.105468,0.01758 0.152343,0.04687 0.05273,0.03223 0.09961,0.08203 0.140625,0.152344 0.03809,0.07031 0.06445,0.164063 0.08203,0.28125 0.01465,0.111328 0.02344,0.240235 0.02344,0.386719 z m 0,0"
         style="fill:#000000;fill-opacity:1;fill-rule:nonzero;stroke:none"
         aria-label="AMF"
         transform="matrix(1.3333333,0,0,1.3333333,456.17333,331)"
         clip-path="url(#clipPath6)" />
    </g>
    <g
       id="g6"
       transform="translate(-275.79417,-268.45922)">
      <path
         id="path7"
         d="M 752.58,482.35 H 364.87 v -0.75 h 387.71 z m -1,-5.37 10.01,5 -10.01,5 z"
         style="fill:#c00000;fill-opacity:1;fill-rule:nonzero;stroke:none"
         transform="matrix(1.3333333,0,0,-1.3333333,0,1056)" />
    </g>
    <g
       id="g7"
       transform="translate(-275.79417,-268.45922)">
      <path
         id="path8"
         d="m 731.63,528.46 h 65.25 v 45.735 h -65.25 z"
         style="fill:#fff2cc;fill-opacity:1;fill-rule:evenodd;stroke:#c00000;stroke-width:1.0003;stroke-linecap:butt;stroke-linejoin:miter;stroke-miterlimit:10;stroke-dasharray:none;stroke-opacity:0.90196"
         transform="matrix(1.3333333,0,0,-1.3333333,0,1056)" />
    </g>
    <g
       id="g8"
       transform="translate(-275.79417,-268.45922)">
      <path
         id="path9"
         d="m 13.369805,-0.71445313 c 0.06152,0.17285157 0.09375,0.31347657 0.09375,0.421875 0.0059,0.10253907 -0.02051,0.18164063 -0.08203,0.234375 -0.06445,0.05566407 -0.169921,0.08789063 -0.316406,0.10546875 -0.140625,0.01464844 -0.333984,0.0234375 -0.574219,0.0234375 -0.243164,0 -0.439453,-0.0087891 -0.585937,-0.0234375 C 11.764338,0.03847652 11.65301,0.02382812 11.576838,3.90625e-4 11.506528,-0.02890625 11.450861,-0.06992188 11.412775,-0.11679688 c -0.03223,-0.046875 -0.06445,-0.10546875 -0.09375,-0.17578125 L 10.018242,-3.9839844 H 3.7135547 l -1.2421875,3.64453127 c -0.023437,0.0703125 -0.055664,0.13476563 -0.09375,0.1875 -0.041016,0.046875 -0.099609,0.09082032 -0.1757813,0.12890625 C 2.1315234,0.00625 2.0260547,0.0296875 1.8854297,0.04726562 1.7506641,0.06191406 1.5748828,0.07070312 1.3580859,0.07070312 c -0.2285156,0 -0.41601559,-0.01171875 -0.56249996,-0.03515625 -0.140625,-0.01757812 -0.24316406,-0.04980468 -0.3046875,-0.10546875 -0.0556641,-0.05273437 -0.0820313,-0.13183593 -0.0820313,-0.234375 0.005859,-0.10839843 0.0410156,-0.24902343 0.10546875,-0.421875 L 5.6002734,-14.812109 c 0.029297,-0.08496 0.070312,-0.155274 0.1171875,-0.210938 0.052734,-0.05273 0.1289063,-0.09668 0.2226563,-0.128906 0.099609,-0.0293 0.2255859,-0.0498 0.375,-0.05859 0.1552734,-0.01465 0.3515625,-0.02344 0.5859375,-0.02344 0.2490234,0 0.4570312,0.0088 0.6210937,0.02344 0.1640625,0.0088 0.2958985,0.0293 0.3984375,0.05859 0.099609,0.03223 0.178711,0.0791 0.234375,0.140625 0.052734,0.05566 0.09668,0.125976 0.1289063,0.210937 z M 6.8424609,-13.148047 h -0.011719 l -2.6132813,7.5585939 h 5.2734375 z m 20.0888671,7.5468751 c 0,0.9228516 -0.137695,1.7460938 -0.410156,2.4726563 -0.266602,0.7207031 -0.650391,1.3300781 -1.148438,1.828125 -0.500976,0.50097654 -1.110351,0.87890622 -1.828125,1.13671872 -0.720703,0.25488282 -1.535156,0.38671875 -2.449218,0.38671875 -0.837891,0 -1.59961,-0.12304687 -2.285157,-0.36328125 -0.688476,-0.24023437 -1.277343,-0.59765625 -1.769531,-1.06640622 -0.492187,-0.4746094 -0.873047,-1.069336 -1.136719,-1.78125 -0.266601,-0.7089844 -0.398437,-1.5292969 -0.398437,-2.4609375 v -9.4101559 c 0,-0.06152 0.01465,-0.117188 0.04687,-0.164063 0.0293,-0.04687 0.08496,-0.08203 0.164062,-0.105469 0.07617,-0.0293 0.178711,-0.05273 0.304688,-0.07031 0.123047,-0.02344 0.287109,-0.03516 0.492187,-0.03516 0.1875,0 0.345704,0.01172 0.480469,0.03516 0.131836,0.01758 0.234375,0.04101 0.304688,0.07031 0.07617,0.02344 0.131836,0.05859 0.164062,0.105469 0.0293,0.04687 0.04687,0.102539 0.04687,0.164063 v 9.1640621 c 0,0.703125 0.08496,1.3183594 0.257813,1.8398438 0.169922,0.524414 0.416015,0.9609375 0.738281,1.3125 0.328125,0.3457031 0.717773,0.6064453 1.171875,0.7851562 0.459961,0.1728516 0.975586,0.2578125 1.546875,0.2578125 0.585937,0 1.104492,-0.084961 1.558594,-0.2578125 0.459961,-0.1699219 0.846679,-0.4277344 1.160156,-0.7734375 0.319336,-0.3427734 0.5625,-0.7675781 0.726562,-1.2773437 0.169922,-0.506836 0.257813,-1.1015625 0.257813,-1.78125 v -9.2695309 c 0,-0.06152 0.01465,-0.117188 0.04687,-0.164063 0.0293,-0.04687 0.08496,-0.08203 0.164062,-0.105469 0.07617,-0.0293 0.178711,-0.05273 0.304688,-0.07031 0.131836,-0.02344 0.295898,-0.03516 0.492187,-0.03516 0.1875,0 0.342774,0.01172 0.46875,0.03516 0.131836,0.01758 0.234375,0.04101 0.304688,0.07031 0.07617,0.02344 0.131836,0.05859 0.164062,0.105469 0.03809,0.04687 0.05859,0.102539 0.05859,0.164063 z m 12.459961,1.3476563 c 0,0.711914 -0.134766,1.3447265 -0.398437,1.8984375 -0.257813,0.5566406 -0.621094,1.0283203 -1.089844,1.41796872 -0.462891,0.38378907 -1.007813,0.67382813 -1.640625,0.8671875 -0.626953,0.19335938 -1.300781,0.29296875 -2.027344,0.29296875 -0.509766,0 -0.981445,-0.0439453 -1.417969,-0.12890625 C 32.386406,0.00625 31.999688,-0.09628906 31.656914,-0.22226563 31.32,-0.3453125 31.03582,-0.47421875 30.801445,-0.60898438 30.57293,-0.74082031 30.414727,-0.85507813 30.320977,-0.94882813 c -0.08789,-0.09375 -0.152344,-0.21093747 -0.199219,-0.35156247 -0.04102,-0.1464844 -0.05859,-0.3427735 -0.05859,-0.5859375 0,-0.1699219 0.0059,-0.3105469 0.02344,-0.421875 0.01465,-0.1171875 0.03809,-0.2109375 0.07031,-0.28125 0.0293,-0.070312 0.07031,-0.1171875 0.117188,-0.140625 0.04687,-0.029297 0.09961,-0.046875 0.164062,-0.046875 0.108399,0 0.260742,0.067383 0.457031,0.1992187 0.202149,0.1347656 0.459961,0.2783203 0.773438,0.4335938 0.310547,0.1582031 0.685547,0.3046875 1.125,0.4453125 0.445312,0.1347656 0.955078,0.1992187 1.535156,0.1992187 0.436524,0 0.834961,-0.058594 1.195313,-0.1757812 0.366211,-0.1171875 0.679687,-0.28125 0.9375,-0.4921875 0.263671,-0.2167969 0.46875,-0.4833985 0.609375,-0.796875 0.140625,-0.3105469 0.210937,-0.6679688 0.210937,-1.0664063 0,-0.4277344 -0.09961,-0.796875 -0.292969,-1.1015625 -0.196289,-0.3046875 -0.454101,-0.5683594 -0.773437,-0.796875 -0.322266,-0.234375 -0.688477,-0.4453125 -1.101563,-0.6328125 -0.407226,-0.1933594 -0.826172,-0.3896484 -1.253906,-0.5859375 -0.430664,-0.2021484 -0.849609,-0.4248047 -1.253906,-0.6679687 -0.407227,-0.2402344 -0.770508,-0.5273438 -1.089844,-0.8554688 -0.322266,-0.328125 -0.583008,-0.7089844 -0.785156,-1.1484375 -0.196289,-0.4453121 -0.292969,-0.9755861 -0.292969,-1.5937501 0,-0.632812 0.111328,-1.195312 0.339844,-1.6875 0.234375,-0.498047 0.553711,-0.916992 0.960937,-1.253906 0.413086,-0.333985 0.902344,-0.588867 1.464844,-0.761719 0.568359,-0.178711 1.183594,-0.269531 1.839844,-0.269531 0.333984,0 0.670898,0.03223 1.007812,0.09375 0.342774,0.05566 0.66211,0.134765 0.960938,0.234375 0.304687,0.09375 0.574219,0.205078 0.808594,0.328125 0.234375,0.117187 0.386718,0.216797 0.457031,0.292969 0.07617,0.07031 0.128906,0.128906 0.152344,0.175781 0.02344,0.04101 0.04102,0.09375 0.05859,0.164062 0.01465,0.06445 0.02637,0.140625 0.03516,0.234375 0.0059,0.09375 0.01172,0.216797 0.01172,0.363282 0,0.140625 -0.0088,0.266601 -0.02344,0.375 -0.0088,0.111328 -0.02344,0.205078 -0.04687,0.28125 -0.02344,0.07031 -0.05859,0.125976 -0.105469,0.164062 -0.04102,0.03223 -0.08789,0.04687 -0.140625,0.04687 -0.08789,0 -0.222656,-0.05273 -0.410156,-0.164062 -0.181641,-0.108399 -0.404297,-0.228516 -0.667969,-0.363282 -0.266601,-0.140625 -0.583008,-0.263672 -0.949219,-0.375 -0.360351,-0.117187 -0.767578,-0.175781 -1.21875,-0.175781 -0.421875,0 -0.791015,0.05859 -1.101562,0.175781 -0.313477,0.111328 -0.571289,0.257813 -0.773438,0.445313 -0.205078,0.1875 -0.357422,0.410156 -0.457031,0.667969 -0.102539,0.257812 -0.152344,0.533203 -0.152344,0.820312 0,0.421875 0.09668,0.785156 0.292969,1.089844 0.193359,0.304687 0.451172,0.5742186 0.773438,0.8085936 0.328125,0.234375 0.697265,0.4511719 1.113281,0.6445313 0.413086,0.196289 0.834961,0.3955078 1.265625,0.5976562 0.427734,0.1962891 0.849609,0.4160156 1.265625,0.65625 0.413086,0.234375 0.779297,0.515625 1.101562,0.84375 0.328125,0.3222656 0.588868,0.703125 0.785157,1.1484375 0.202148,0.4394531 0.304687,0.9580078 0.304687,1.5585938 z M 49.727227,-14.296484 c 0,0.149414 -0.0088,0.27832 -0.02344,0.386718 -0.01758,0.111328 -0.04395,0.199219 -0.08203,0.269532 -0.04102,0.06445 -0.08789,0.111328 -0.140625,0.140625 -0.04687,0.03223 -0.09961,0.04687 -0.152344,0.04687 h -5.554687 v 5.1562496 h 5.25 c 0.05273,0 0.105468,0.017578 0.152343,0.046875 0.05273,0.023437 0.09961,0.067383 0.140625,0.1289063 0.03809,0.064453 0.06445,0.149414 0.08203,0.2578125 0.01465,0.102539 0.02344,0.234375 0.02344,0.3984375 0,0.149414 -0.0088,0.2783203 -0.02344,0.3867187 -0.01758,0.1025391 -0.04395,0.1875 -0.08203,0.2578125 -0.04102,0.064453 -0.08789,0.1142578 -0.140625,0.1523438 -0.04687,0.032227 -0.09961,0.046875 -0.152343,0.046875 h -5.25 v 6.31640622 c 0,0.0556641 -0.01758,0.11132813 -0.04687,0.1640625 -0.03223,0.046875 -0.08789,0.08789063 -0.164063,0.1171875 -0.0791,0.023437505 -0.181641,0.04101563 -0.304687,0.05859375 -0.125977,0.0234375 -0.290039,0.03515625 -0.492188,0.03515625 -0.1875,0 -0.348633,-0.01171875 -0.480469,-0.03515625 -0.134765,-0.01757812 -0.240234,-0.035156245 -0.316406,-0.05859375 -0.0791,-0.02929687 -0.134766,-0.0703125 -0.164062,-0.1171875 -0.03223,-0.0527344 -0.04687,-0.10839843 -0.04687,-0.1640625 V -14.343359 c 0,-0.304688 0.07617,-0.515625 0.234375,-0.632813 0.164062,-0.123047 0.333984,-0.1875 0.515625,-0.1875 h 6.820312 c 0.05273,0 0.105469,0.01758 0.152344,0.04687 0.05273,0.03223 0.09961,0.08203 0.140625,0.152344 0.03809,0.07031 0.06445,0.164062 0.08203,0.28125 0.01465,0.111328 0.02344,0.240234 0.02344,0.386719 z m 0,0"
         style="fill:#000000;fill-opacity:1;fill-rule:nonzero;stroke:none"
         aria-label="AUSF"
         transform="matrix(1.3333333,0,0,1.3333333,987.24,331.86667)"
         clip-path="url(#clipPath10)" />
    </g>
    <g
       id="g10"
       transform="translate(-275.79417,-268.45922)">
      <text
         id="text10"
         xml:space="preserve"
         transform="matrix(1.3333333,0,0,1.3333333,503.84,407.64)"
         clip-path="url(#clipPath11)"><tspan
           id="tspan10"
           style="font-variant:normal;font-weight:700;font-size:15.75px;font-family:'Courier New';writing-mode:lr-tb;fill:#c00000;fill-opacity:1;fill-rule:nonzero;stroke:none"
           x="0"
           dx="0 0.315 0.315 0.315 -0.42524999 0.315"
           y="0">POST /</tspan></text>
      <text
         id="text11"
         xml:space="preserve"
         transform="matrix(1.3333333,0,0,1.3333333,580.93333,407.64)"
         clip-path="url(#clipPath12)"><tspan
           id="tspan11"
           style="font-variant:normal;font-weight:700;font-size:15.75px;font-family:'Courier New';writing-mode:lr-tb;fill:#c00000;fill-opacity:1;fill-rule:nonzero;stroke:none"
           x="0"
           dx="0 0.28349999 0.28349999 0.28349999 -0.45675001"
           y="0">nausf</tspan></text>
      <text
         id="text12"
         xml:space="preserve"
         transform="matrix(1.3333333,0,0,1.3333333,645.17333,407.64)"
         clip-path="url(#clipPath13)"><tspan
           id="tspan12"
           style="font-variant:normal;font-weight:700;font-size:15.75px;font-family:'Courier New';writing-mode:lr-tb;fill:#c00000;fill-opacity:1;fill-rule:nonzero;stroke:none"
           x="0"
           y="0">-</tspan></text>
      <text
         id="text13"
         xml:space="preserve"
         transform="matrix(1.3333333,0,0,1.3333333,658,407.64)"
         clip-path="url(#clipPath14)"><tspan
           id="tspan13"
           style="font-variant:normal;font-weight:700;font-size:15.75px;font-family:'Courier New';writing-mode:lr-tb;fill:#c00000;fill-opacity:1;fill-rule:nonzero;stroke:none"
           x="0"
           dx="0 0.28349999 0.28349999 0.28349999 -0.45675001 0.28349999 0.28349999 0.28349999"
           y="0">auth/v1/</tspan></text>
      <text
         id="text14"
         xml:space="preserve"
         transform="matrix(1.3333333,0,0,1.3333333,760.77333,407.64)"
         clip-path="url(#clipPath15)"><tspan
           id="tspan14"
           style="font-variant:normal;font-weight:700;font-size:15.75px;font-family:'Courier New';writing-mode:lr-tb;fill:#c00000;fill-opacity:1;fill-rule:nonzero;stroke:none"
           x="0"
           y="0">ue</tspan></text>
      <text
         id="text15"
         xml:space="preserve"
         transform="matrix(1.3333333,0,0,1.3333333,786.46667,407.64)"
         clip-path="url(#clipPath16)"><tspan
           id="tspan15"
           style="font-variant:normal;font-weight:700;font-size:15.75px;font-family:'Courier New';writing-mode:lr-tb;fill:#c00000;fill-opacity:1;fill-rule:nonzero;stroke:none"
           x="0"
           y="0">-</tspan></text>
      <text
         id="text16"
         xml:space="preserve"
         transform="matrix(1.3333333,0,0,1.3333333,799.29333,407.64)"
         clip-path="url(#clipPath17)"><tspan
           id="tspan16"
           style="font-variant:normal;font-weight:700;font-size:15.75px;font-family:'Courier New';writing-mode:lr-tb;fill:#c00000;fill-opacity:1;fill-rule:nonzero;stroke:none"
           x="0"
           dx="0 0.28349999 0.28349999 0.28349999 -0.45675001 0.28349999 0.28349999 0.28349999 0.28349999 0.28349999 -0.45675001 0.28349999 0.28349999 0.28349999 0.28349999"
           y="0">authentications</tspan></text>
    </g>
    <g
       id="g17"
       transform="translate(-275.79417,-268.45922)">
      <path
         id="path18"
         d="M 761.59,357.89 H 373.88 v -0.75 h 387.71 z m -386.71,4.63 -10.01,-5 10.01,-5 z"
         style="fill:#c00000;fill-opacity:1;fill-rule:nonzero;stroke:none"
         transform="matrix(1.3333333,0,0,-1.3333333,0,1056)" />
    </g>
    <g
       id="g18"
       transform="translate(-275.79417,-268.45922)">
      <text
         id="text18"
         xml:space="preserve"
         transform="matrix(1.3333333,0,0,1.3333333,584.86667,569.37333)"
         clip-path="url(#clipPath19)"><tspan
           id="tspan18"
           style="font-variant:normal;font-weight:700;font-size:18px;font-family:'Courier New';writing-mode:lr-tb;fill:#c00000;fill-opacity:1;fill-rule:nonzero;stroke:none"
           x="0"
           dx="0 -0.30599999 0.43200001 -0.30599999 -0.30599999 0.43200001 -0.30599999 -0.30599999 0.43200001 -0.30599999 -0.30599999 0.43200001 -0.30599999 -0.30599999 0.43200001 -0.30599999 -0.30599999 0.43200001 -0.30599999 -0.30599999 0.43200001 -0.30599999"
           y="0">Response: SE AV, KSEAF</tspan></text>
    </g>
    <g
       id="g19"
       transform="translate(-275.79417,-268.45922)">
      <path
         id="path20"
         d="m 363.75,528.09 0.8,-297.9"
         style="fill:none;stroke:#c00000;stroke-width:1.2504;stroke-linecap:butt;stroke-linejoin:miter;stroke-miterlimit:10;stroke-dasharray:5.0017, 3.7512;stroke-dashoffset:0;stroke-opacity:1"
         transform="matrix(1.3333333,0,0,-1.3333333,0,1056)" />
    </g>
    <g
       id="g20"
       transform="translate(-275.79417,-268.45922)">
      <path
         id="path21"
         d="M 753.33,321.91 H 365.62 v -0.75 h 387.71 z m -1,-5.38 10.01,5 -10.01,5 z"
         style="fill:#c00000;fill-opacity:1;fill-rule:nonzero;stroke:none"
         transform="matrix(1.3333333,0,0,-1.3333333,0,1056)" />
    </g>
    <g
       id="g21"
       transform="translate(-275.79417,-268.45922)">
      <text
         id="text21"
         xml:space="preserve"
         transform="matrix(1.3333333,0,0,1.3333333,505.17333,621.49333)"
         clip-path="url(#clipPath22)"><tspan
           id="tspan21"
           style="font-variant:normal;font-weight:700;font-size:15.775px;font-family:'Courier New';writing-mode:lr-tb;fill:#c00000;fill-opacity:1;fill-rule:nonzero;stroke:none"
           x="0"
           dx="0 0.26817501 0.26817501 0.26817501 -0.45747501"
           y="0">PUT /</tspan></text>
      <text
         id="text22"
         xml:space="preserve"
         transform="matrix(1.3333333,0,0,1.3333333,569.4,621.49333)"
         clip-path="url(#clipPath23)"><tspan
           id="tspan22"
           style="font-variant:normal;font-weight:700;font-size:15.775px;font-family:'Courier New';writing-mode:lr-tb;fill:#c00000;fill-opacity:1;fill-rule:nonzero;stroke:none"
           x="0"
           dx="0 0.26817501 0.26817501 0.26817501 -0.45747501"
           y="0">nausf</tspan></text>
      <text
         id="text23"
         xml:space="preserve"
         transform="matrix(1.3333333,0,0,1.3333333,633.62667,621.49333)"
         clip-path="url(#clipPath24)"><tspan
           id="tspan23"
           style="font-variant:normal;font-weight:700;font-size:15.775px;font-family:'Courier New';writing-mode:lr-tb;fill:#c00000;fill-opacity:1;fill-rule:nonzero;stroke:none"
           x="0"
           y="0">-</tspan></text>
      <text
         id="text24"
         xml:space="preserve"
         transform="matrix(1.3333333,0,0,1.3333333,646.46667,621.49333)"
         clip-path="url(#clipPath25)"><tspan
           id="tspan24"
           style="font-variant:normal;font-weight:700;font-size:15.775px;font-family:'Courier New';writing-mode:lr-tb;fill:#c00000;fill-opacity:1;fill-rule:nonzero;stroke:none"
           x="0"
           dx="0 0.299725 0.299725 0.299725 -0.44170001 0.299725 0.299725 0.299725"
           y="0">auth/v1/</tspan></text>
      <text
         id="text25"
         xml:space="preserve"
         transform="matrix(1.3333333,0,0,1.3333333,749.22667,621.49333)"
         clip-path="url(#clipPath26)"><tspan
           id="tspan25"
           style="font-variant:normal;font-weight:700;font-size:15.775px;font-family:'Courier New';writing-mode:lr-tb;fill:#c00000;fill-opacity:1;fill-rule:nonzero;stroke:none"
           x="0"
           y="0">ue</tspan></text>
      <text
         id="text26"
         xml:space="preserve"
         transform="matrix(1.3333333,0,0,1.3333333,774.93333,621.49333)"
         clip-path="url(#clipPath27)"><tspan
           id="tspan26"
           style="font-variant:normal;font-weight:700;font-size:15.775px;font-family:'Courier New';writing-mode:lr-tb;fill:#c00000;fill-opacity:1;fill-rule:nonzero;stroke:none"
           x="0"
           y="0">-</tspan></text>
      <text
         id="text27"
         xml:space="preserve"
         transform="matrix(1.3333333,0,0,1.3333333,787.8,621.49333)"
         clip-path="url(#clipPath28)"><tspan
           id="tspan27"
           style="font-variant:normal;font-weight:700;font-size:15.775px;font-family:'Courier New';writing-mode:lr-tb;fill:#c00000;fill-opacity:1;fill-rule:nonzero;stroke:none"
           x="0"
           dx="0 0.26817501 0.26817501 0.26817501 -0.45747501 0.26817501 0.26817501 0.26817501 0.26817501 0.26817501 -0.45747501 0.26817501 0.26817501 0.26817501 0.26817501 0.26817501"
           y="0">authentications/</tspan></text>
    </g>
    <g
       id="g28"
       transform="translate(-275.79417,-268.45922)">
      <text
         id="text28"
         xml:space="preserve"
         transform="matrix(1.3333333,0,0,1.3333333,505.17333,647.53333)"
         clip-path="url(#clipPath29)"><tspan
           id="tspan28"
           style="font-variant:normal;font-weight:700;font-size:15.75px;font-family:'Courier New';writing-mode:lr-tb;fill:#c00000;fill-opacity:1;fill-rule:nonzero;stroke:none"
           x="0"
           dx="0 0.28349999 0.28349999 0.28349999 -0.45675001 0.28349999"
           y="0">#id/5g</tspan></text>
      <text
         id="text29"
         xml:space="preserve"
         transform="matrix(1.3333333,0,0,1.3333333,582.22667,647.53333)"
         clip-path="url(#clipPath30)"><tspan
           id="tspan29"
           style="font-variant:normal;font-weight:700;font-size:15.75px;font-family:'Courier New';writing-mode:lr-tb;fill:#c00000;fill-opacity:1;fill-rule:nonzero;stroke:none"
           x="0"
           y="0">-</tspan></text>
      <text
         id="text30"
         xml:space="preserve"
         transform="matrix(1.3333333,0,0,1.3333333,595.10667,647.53333)"
         clip-path="url(#clipPath31)"><tspan
           id="tspan30"
           style="font-variant:normal;font-weight:700;font-size:15.75px;font-family:'Courier New';writing-mode:lr-tb;fill:#c00000;fill-opacity:1;fill-rule:nonzero;stroke:none"
           x="0"
           y="0">aka</tspan></text>
      <text
         id="text31"
         xml:space="preserve"
         transform="matrix(1.3333333,0,0,1.3333333,633.62667,647.53333)"
         clip-path="url(#clipPath32)"><tspan
           id="tspan31"
           style="font-variant:normal;font-weight:700;font-size:15.75px;font-family:'Courier New';writing-mode:lr-tb;fill:#c00000;fill-opacity:1;fill-rule:nonzero;stroke:none"
           x="0"
           y="0">-</tspan></text>
      <text
         id="text32"
         xml:space="preserve"
         transform="matrix(1.3333333,0,0,1.3333333,646.46667,647.53333)"
         clip-path="url(#clipPath33)"><tspan
           id="tspan32"
           style="font-variant:normal;font-weight:700;font-size:15.75px;font-family:'Courier New';writing-mode:lr-tb;fill:#c00000;fill-opacity:1;fill-rule:nonzero;stroke:none"
           x="0"
           dx="0 0.315 0.315 0.315 -0.42524999 0.315 0.315 0.315 0.315 0.315 -0.42524999 0.315"
           y="0">confirmation</tspan></text>
    </g>
    <g
       id="g33"
       transform="translate(-275.79417,-268.45922)">
      <path
         id="path34"
         d="m 763.5,528.09 0.8,-297.9"
         style="fill:none;stroke:#c00000;stroke-width:1.2504;stroke-linecap:butt;stroke-linejoin:miter;stroke-miterlimit:10;stroke-dasharray:5.0017, 3.7512;stroke-dashoffset:0;stroke-opacity:1"
         transform="matrix(1.3333333,0,0,-1.3333333,0,1056)" />
    </g>
    <g
       id="g34"
       transform="translate(-275.79417,-268.45922)">
      <path
         id="path35"
         d="m 696.38,391.26 h 129.75 v 19.494 H 696.38 Z"
         style="fill:#fff2cc;fill-opacity:1;fill-rule:evenodd;stroke:#c00000;stroke-width:1.0003;stroke-linecap:butt;stroke-linejoin:miter;stroke-miterlimit:10;stroke-dasharray:none;stroke-opacity:0.90196"
         transform="matrix(1.3333333,0,0,-1.3333333,0,1056)" />
    </g>
    <g
       id="g35"
       transform="translate(-275.79417,-268.45922)">
      <text
         id="text35"
         xml:space="preserve"
         transform="matrix(1.3333333,0,0,1.3333333,937.29333,527.97333)"
         clip-path="url(#clipPath36)"><tspan
           id="tspan35"
           style="font-variant:normal;font-weight:700;font-size:15.775px;font-family:'Courier New';writing-mode:lr-tb;fill:#c00000;fill-opacity:1;fill-rule:nonzero;stroke:none"
           x="0"
           dx="0 0.26817501 0.26817501 0.26817501 -0.45747501 0.26817501 0.26817501 0.26817501 0.26817501 0.26817501 -0.45747501 0.26817501"
           y="0">Derive SE AV</tspan></text>
    </g>
    <g
       id="g36"
       transform="translate(-275.79417,-268.45922)">
      <path
         id="path37"
         d="m 696.38,430.99 h 129.75 v 35.988 H 696.38 Z"
         style="fill:#ededed;fill-opacity:1;fill-rule:evenodd;stroke:#c00000;stroke-width:1.0003;stroke-linecap:butt;stroke-linejoin:miter;stroke-miterlimit:10;stroke-dasharray:none;stroke-opacity:0.90196"
         transform="matrix(1.3333333,0,0,-1.3333333,0,1056)" />
    </g>
    <g
       id="g37"
       transform="translate(-275.79417,-268.45922)">
      <path
         id="path38"
         d="m 832.12,461.36 h 21.92 v -0.75 h -21.92 z m 20.92,4.62 10,-5 -10,-5 z"
         style="fill:#c00000;fill-opacity:1;fill-rule:nonzero;stroke:none"
         transform="matrix(1.3333333,0,0,-1.3333333,0,1056)" />
    </g>
    <g
       id="g38"
       transform="translate(-275.79417,-268.45922)">
      <text
         id="text38"
         xml:space="preserve"
         transform="matrix(1.3333333,0,0,1.3333333,938.29333,451.2)"
         clip-path="url(#clipPath39)"><tspan
           id="tspan38"
           style="font-variant:normal;font-weight:700;font-size:15.75px;font-family:'Courier New';writing-mode:lr-tb;fill:#c00000;fill-opacity:1;fill-rule:nonzero;stroke:none"
           x="0"
           dx="0 0.28349999 0.28349999 0.28349999 -0.45675001 0.28349999 0.28349999 0.28349999 0.28349999 0.28349999 -0.45675001 0.28349999"
           y="0">Home Network</tspan></text>
    </g>
    <g
       id="g39"
       transform="translate(-275.79417,-268.45922)">
      <text
         id="text39"
         xml:space="preserve"
         transform="matrix(1.3333333,0,0,1.3333333,938.29333,477.2)"
         clip-path="url(#clipPath40)"><tspan
           id="tspan39"
           style="font-variant:normal;font-weight:700;font-size:15.775px;font-family:'Courier New';writing-mode:lr-tb;fill:#c00000;fill-opacity:1;fill-rule:nonzero;stroke:none"
           x="0"
           dx="0 0.26817501 0.26817501 0.26817501 -0.45747501 0.26817501 0.26817501 0.26817501 0.26817501 0.26817501 -0.45747501 0.26817501"
           y="0">interactions</tspan></text>
    </g>
    <g
       id="g40"
       transform="translate(-275.79417,-268.45922)">
      <path
         id="path41"
         d="m 841.13,432.87 h 21.91 v -0.75 h -21.91 z m 1,-5.38 -10.01,5 10.01,5 z"
         style="fill:#c00000;fill-opacity:1;fill-rule:nonzero;stroke:none"
         transform="matrix(1.3333333,0,0,-1.3333333,0,1056)" />
    </g>
    <g
       id="g41"
       transform="translate(-275.79417,-268.45922)">
      <path
         id="path42"
         d="m 846.38,442.22 v 9.77"
         style="fill:none;stroke:#c00000;stroke-width:2.0007;stroke-linecap:butt;stroke-linejoin:miter;stroke-miterlimit:10;stroke-dasharray:2.0007, 2.0007;stroke-dashoffset:0;stroke-opacity:1"
         transform="matrix(1.3333333,0,0,-1.3333333,0,1056)" />
    </g>
    <g
       id="g42"
       transform="translate(-275.79417,-268.45922)">
      <path
         id="path43"
         d="m 695.63,260.05 h 129.75 v 35.988 H 695.63 Z"
         style="fill:#ededed;fill-opacity:1;fill-rule:evenodd;stroke:#c00000;stroke-width:1.0003;stroke-linecap:butt;stroke-linejoin:miter;stroke-miterlimit:10;stroke-dasharray:none;stroke-opacity:0.90196"
         transform="matrix(1.3333333,0,0,-1.3333333,0,1056)" />
    </g>
    <g
       id="g43"
       transform="translate(-275.79417,-268.45922)">
      <path
         id="path44"
         d="m 831.38,290.42 h 21.91 v -0.75 h -21.92 z m 20.91,4.62 10,-5 -10,-5 z"
         style="fill:#c00000;fill-opacity:1;fill-rule:nonzero;stroke:none"
         transform="matrix(1.3333333,0,0,-1.3333333,0,1056)" />
    </g>
    <g
       id="g44"
       transform="translate(-275.79417,-268.45922)">
      <text
         id="text44"
         xml:space="preserve"
         transform="matrix(1.3333333,0,0,1.3333333,938.29333,679)"
         clip-path="url(#clipPath45)"><tspan
           id="tspan44"
           style="font-variant:normal;font-weight:700;font-size:15.775px;font-family:'Courier New';writing-mode:lr-tb;fill:#c00000;fill-opacity:1;fill-rule:nonzero;stroke:none"
           x="0"
           dx="0 0.26817501 0.26817501 0.26817501 -0.45747501 0.26817501 0.26817501 0.26817501 0.26817501 0.26817501 -0.45747501 0.26817501"
           y="0">Home Network</tspan></text>
    </g>
    <g
       id="g45"
       transform="translate(-275.79417,-268.45922)">
      <text
         id="text45"
         xml:space="preserve"
         transform="matrix(1.3333333,0,0,1.3333333,938.29333,705.04)"
         clip-path="url(#clipPath46)"><tspan
           id="tspan45"
           style="font-variant:normal;font-weight:700;font-size:15.75px;font-family:'Courier New';writing-mode:lr-tb;fill:#c00000;fill-opacity:1;fill-rule:nonzero;stroke:none"
           x="0"
           dx="0 0.28349999 0.28349999 0.28349999 -0.45675001 0.28349999 0.28349999 0.28349999 0.28349999 0.28349999 -0.45675001 0.28349999"
           y="0">interactions</tspan></text>
    </g>
    <g
       id="g46"
       transform="translate(-275.79417,-268.45922)">
      <path
         id="path47"
         d="m 840.38,262.68 h 21.91 v -0.75 h -21.91 z m 1,-5.38 -10,5 10,5 z"
         style="fill:#c00000;fill-opacity:1;fill-rule:nonzero;stroke:none"
         transform="matrix(1.3333333,0,0,-1.3333333,0,1056)" />
    </g>
    <g
       id="g47"
       transform="translate(-275.79417,-268.45922)">
      <path
         id="path48"
         d="m 845.63,271.28 v 9.76"
         style="fill:none;stroke:#c00000;stroke-width:2.0007;stroke-linecap:butt;stroke-linejoin:miter;stroke-miterlimit:10;stroke-dasharray:2.0007, 2.0007;stroke-dashoffset:0;stroke-opacity:1"
         transform="matrix(1.3333333,0,0,-1.3333333,0,1056)" />
    </g>
  </g>
</svg>
